<svg height="512" viewBox="0 0 60 60" width="512" xmlns="http://www.w3.org/2000/svg"><g id="012---Customer-Message" fill="none"><g id="Layer_4" transform="translate(0 1)"><rect id="Rectangle-path" fill="#e8edfc" height="23" rx="2.07" width="26" x="33"/><path id="Shape" d="m56.93 0h-3c1.1423165.002201 2.067799.9276835 2.07 2.07v18.86c-.002201 1.1423165-.9276835 2.067799-2.07 2.07h3c1.1423165-.002201 2.067799-.9276835 2.07-2.07v-18.86c-.002201-1.1423165-.9276835-2.067799-2.07-2.07z" fill="#cad9fc"/><path id="Shape" d="m44.53 23-7.69 5.89c-.1562874.1240368-.3699223.1472834-.5492301.0597641s-.292409-.2702442-.2907699-.4697641l-.0000176-5.48z" fill="#cad9fc"/><path id="Shape" d="m23 40.14v6.86s-1 4-8 4-8-4-8-4v-6.86c.06170823.0683562.12857121.131876.2.19 3.12 2.84 3.12 5.67 6.24 5.67h3.12c3.12 0 3.12-2.83 6.24-5.67.0714288-.058124.1382918-.1216438.2-.19z" fill="#cad9fc"/><g fill="#e8edfc"><path id="Shape" d="m25.95 25.67c-.19 3.51-.81 4.5-.81 6.57 0 .23.01.46.01.69.05 2.48.49 4.69-2.15 7.21-.0617082.0683562-.1285712.131876-.2.19-3.12 2.84-3.12 5.67-6.24 5.67h-3.12c-3.12 0-3.12-2.83-6.24-5.67-.07142879-.058124-.13829177-.1216438-.2-.19-2.64-2.52-2.19-4.73-2.15-7.21.01-.23.01-.46.01-.69 0-2.07-.62-3.05-.8-6.57 0 0 .75-4.39 3.06-6.71.50085208-.4844684 1.16359188-.7659547 1.86-.79 2.78-.18 10.75-.54 14.02 1.04 0 0 2.17 1.34 2.95 6.45z"/><path id="Shape" d="m28.5 29.59c-.6466341 1.5020075-1.8460661 2.6978591-3.35 3.34 0-.23-.01-.46-.01-.69 0-2.07.62-3.06.81-6.57v-.01c.6991956-.5698553 1.633463-.7604458 2.5-.51.01 0 .01.01.02.01 1.18.56.03 4.43.03 4.43z"/><path id="Shape" d="m4.86 32.24c0 .23 0 .46-.01.69-1.50393389-.6421409-2.70336591-1.8379925-3.35-3.34 0 0-1.15-3.87.03-4.43.01-.01.03-.01.04-.02.86690346-.2352221 1.79403797-.0378802 2.49.53.18 3.52.8 4.5.8 6.57z"/></g><path id="Shape" d="m28.45 25.15c-.866537-.2504458-1.8008044-.0598553-2.5.51-.78-5.11-2.95-6.45-2.95-6.45-3.27-1.58-11.24-1.22-14.02-1.04-.69640812.0240453-1.35914792.3055316-1.86.79-2.31 2.32-3.06 6.71-3.06 6.71-.69596203-.5678802-1.62309654-.7652221-2.49-.53-.75-2.61-1.52-10.61 3.88-11.12.32322324-.0316435.60701114-.2284031.75-.52.54-1.08 2.48-3.5 8.88-3.5 0 0 11.06 0 13.07 6 1.0232815 2.9494312 1.1278863 6.1398748.3 9.15z" fill="#a4c2f7"/><path id="Shape" d="m28.15 16c-2.01-6-13.07-6-13.07-6-.58 0-1.112.026-1.621.063 3.029.224 10.121 1.25 11.691 5.937.9123382 2.6485865 1.0930234 5.4942924.523 8.237.1.441.2.908.277 1.423.6991956-.5698553 1.633463-.7604458 2.5-.51.8278863-3.0101252.7232815-6.2005688-.3-9.15z" fill="#7facfa"/><path id="Shape" d="m39.97 58h-37.97c-.55228475 0-1-.4477153-1-1v-7.48c-.0044215-.4459061.29069212-.8393909.72-.96l5.28-1.56s1 4 8 4 8-4 8-4l13.55 4s3.12.9 3.42 7z" fill="#e8edfc"/><path id="Shape" d="m36.55 51-13.55-4c-.0867504.2737532-.2069948.5357381-.358.78l10.908 3.22s3.12.9 3.42 7h3c-.3-6.1-3.42-7-3.42-7z" fill="#cad9fc"/></g><g id="Layer_3" fill="#fff" transform="translate(0 11)"><path id="Shape" d="m7 37c-2.242.668-1.08.324-5.28 1.56-.42930788.1206091-.7244215.5140939-.72.96v7.48c0 .5522847.44771525 1 1 1h3c-.55228475 0-1-.4477153-1-1v-7.48c-.0044215-.4459061.29069212-.8393909.72-.96l3.5-1.03"/><path id="Shape" d="m5 22c-2.61-1.19-.5-2.41-.5-2.41s-1.15-3.87.03-4.43c.01-.01.03-.01.04-.02-.75-2.61-1.52-10.61 3.88-11.12.32322324-.03164348.60701114-.22840308.75-.52.49-.98 2.13-3.06 7.2-3.44.487 0-8.079-.8-10.2 3.44-.14298886.29159692-.42677676.48835652-.75.52-5.4.51-4.63 8.51-3.88 11.12-.01.01-.03.01-.04.02-1.18.56-.03 4.43-.03 4.43.64663409 1.5020075 1.84606611 2.6978591 3.35 3.34"/></g><path id="Rectangle-path" d="m2 58h8v2h-8z" fill="#fff"/><g fill="#428dff"><path id="Shape" d="m56.931 0h-21.862c-1.6942764.00165376-3.0673462 1.37472359-3.069 3.069v18.862c.0011705 1.6677282 1.3327295 3.029913 3 3.069v4.483c-.0008726.5797254.3287317 1.1092586.8492798 1.3644292.5205481.2551707 1.1410093.1913559 1.5987202-.1644292l7.42-5.683h12.063c1.6942764-.0016538 3.0673462-1.3747236 3.069-3.069v-18.862c-.0016538-1.69427641-1.3747236-3.06734624-3.069-3.069zm1.069 21.931c-.0005513.5901639-.4788361 1.0684487-1.069 1.069h-15.931c-.5522847 0-1 .4477153-1 1s.4477153 1 1 1h.578l-4.578 3.5v-3.5c.5522847 0 1-.4477153 1-1s-.4477153-1-1-1h-1.931c-.5901639-.0005513-1.0684487-.4788361-1.069-1.069v-18.862c.0005513-.59016389.4788361-1.0684487 1.069-1.069h21.862c.5901639.0005513 1.0684487.47883611 1.069 1.069z"/><path id="Shape" d="m.557 30.915c.65319233 1.5361185 1.80810881 2.8052575 3.276 3.6-.103 2.829-.033 4.763 2.167 7.043v5.7l-4.566 1.342c-.84806625.2540004-1.43027979 1.0327211-1.434 1.918v7.482c0 2.126 3 2.7 3 1 0-.5522847-.44771525-1-1-1v-7.482l4.45-1.313c.792 1.395 2.961 3.795 8.55 3.795s7.758-2.4 8.55-3.8l12.7 3.749c.094.032 2.134.783 2.631 5.046h-28.881c-.55228475 0-1 .4477153-1 1s.44771525 1 1 1h30c.3025465-.001898.5877229-.141624.7746292-.3795401.1869062-.2379161.2551497-.5480641.1853708-.8424599-.385-6.582-3.979-7.695-4.127-7.737l-12.833-3.783v-5.695c2.2-2.281 2.265-4.257 2.168-7.046 1.4801076-.8006898 2.6412359-2.0842837 3.29-3.637.433-1.455.913-3.8.1-5.013.7207264-3.0412684.5615323-6.224804-.459-9.179-2.214-6.607-13.538-6.683-14.019-6.683-6.974 0-9.159 2.828-9.721 4.029-5.184.483-6.008 6.746-4.893 11.8-.844 1.214-.356 3.586.091 5.086zm1.9-.609c-.3592157-1.0531433-.49742645-2.1690419-.406-3.278.36297428-.0448899.7303722.0359306 1.041.229.14455326 1.6107851.3728622 3.2129531.684 4.8-.56124572-.4803497-1.01015245-1.0780954-1.315-1.751zm5.543 17.54v-4.162c1.633 2.116 2.392 4.316 5.44 4.316 4.488 0 5.3.414 7.631-3.018.28-.411.583-.849.929-1.3v4.164c-1.551 4.222-12.412 4.239-14 0zm14.126-7.255c-3.066 2.79-3.182 5.409-5.566 5.409-4.3 0-4.25.4-5.978-2.143-.76397547-1.1971633-1.67396842-2.2945967-2.709-3.267-2.189-1.99-2.127-3.653-2.049-5.76.165-4.47-.514-3.684-.757-8.1.124-.63.886-4.184 2.758-6.065.33297239-.3084796.76630804-.4860762 1.22-.5 2.371-.156 10.3-.546 13.447.913.251.2 1.814 1.577 2.453 5.644-.2 3.36-.8 4.337-.8 6.517-.005 3.38.555 5.011-2.019 7.352zm5.429-10.327c-.3081519.6860512-.763604 1.2958243-1.334 1.786.3132509-1.5870419.5445573-3.1891639.693-4.8.3086196-.1905568.6730859-.269942 1.033-.225.0930168 1.0951278-.0404195 2.1976796-.392 3.239zm-24.45-12.846c.5465502-.8258668 1.45119274-1.344924 2.44-1.4.66519547-.0667811 1.24906989-.4715251 1.545-1.071.35-.692 1.961-2.947 7.99-2.947.1 0 10.361.061 12.122 5.319.8547731 2.4711186 1.0275011 5.1269832.5 7.688-.3451972.0095794-.6871424.0695461-1.015.178-.966-4.34-2.921-5.675-3.16-5.823-2.683-1.683-11.421-1.4-14.61-1.192-.93997624.045716-1.83115025.4321165-2.507 1.087-1.48384314 1.7046727-2.52758417 3.7468345-3.04 5.948-.33349366-.1177132-.68265461-.1851188-1.036-.2-.386-2.032-.583-5.605.771-7.587z"/><circle id="Oval" cx="6" cy="59" r="1"/><path id="Shape" d="m54 5h-16c-.5522847 0-1 .44771525-1 1s.4477153 1 1 1h16c.5522847 0 1-.44771525 1-1s-.4477153-1-1-1z"/><path id="Shape" d="m54 9h-16c-.5522847 0-1 .44771525-1 1 0 .5522847.4477153 1 1 1h16c.5522847 0 1-.4477153 1-1 0-.55228475-.4477153-1-1-1z"/><path id="Shape" d="m54 13h-16c-.5522847 0-1 .4477153-1 1s.4477153 1 1 1h16c.5522847 0 1-.4477153 1-1s-.4477153-1-1-1z"/><path id="Shape" d="m43 17h-5c-.5522847 0-1 .4477153-1 1s.4477153 1 1 1h5c.5522847 0 1-.4477153 1-1s-.4477153-1-1-1z"/></g></g></svg>