<?xml version="1.0" encoding="iso-8859-1"?>
<!-- Generator: Adobe Illustrator 19.0.0, SVG Export Plug-In . SVG Version: 6.00 Build 0)  -->
<svg version="1.1" id="Capa_1" xmlns="http://www.w3.org/2000/svg" xmlns:xlink="http://www.w3.org/1999/xlink" x="0px" y="0px"
	 viewBox="0 0 512.005 512.005" style="enable-background:new 0 0 512.005 512.005;" xml:space="preserve">
<g transform="translate(0 -1)">
	<g transform="translate(1 1)">
		<rect x="186.736" y="418.139" style="fill:#A4C2F7;" width="136.533" height="68.267"/>
		<rect x="186.736" y="418.139" style="fill:#D4E1F4;" width="110.933" height="68.267"/>
		<path style="fill:#A4C2F7;" d="M502.469,41.332v361.079c-0.39,18.473-15.66,33.143-34.133,32.794H41.669
			c-18.473,0.349-33.743-14.322-34.133-32.794V41.332C7.927,22.86,23.196,8.19,41.669,8.539h426.667
			C486.809,8.19,502.079,22.86,502.469,41.332z"/>
		
			<linearGradient id="SVGID_1_" gradientUnits="userSpaceOnUse" x1="-49.8493" y1="652.6816" x2="-48.9365" y2="651.6776" gradientTransform="matrix(469.3333 0 0 -426.6789 23423.9453 278493.125)">
			<stop  offset="0" style="stop-color:#D3DFF2"/>
			<stop  offset="0.1717" style="stop-color:#D3DFF2"/>
			<stop  offset="0.2" style="stop-color:#D3DFF2"/>
			<stop  offset="0.2002" style="stop-color:#DAE2F2"/>
			<stop  offset="0.2007" style="stop-color:#EBEAF2"/>
			<stop  offset="0.2014" style="stop-color:#F6EFF2"/>
			<stop  offset="0.2023" style="stop-color:#FDF2F2"/>
			<stop  offset="0.205" style="stop-color:#FFF3F2"/>
			<stop  offset="0.2522" style="stop-color:#FFF3F2"/>
			<stop  offset="0.26" style="stop-color:#FFF3F2"/>
			<stop  offset="0.26" style="stop-color:#D3DFF2"/>
			<stop  offset="0.3974" style="stop-color:#D3DFF2"/>
			<stop  offset="0.42" style="stop-color:#D3DFF2"/>
			<stop  offset="0.4202" style="stop-color:#DAE2F2"/>
			<stop  offset="0.4207" style="stop-color:#EBEAF2"/>
			<stop  offset="0.4214" style="stop-color:#F6EFF2"/>
			<stop  offset="0.4223" style="stop-color:#FDF2F2"/>
			<stop  offset="0.425" style="stop-color:#FFF3F2"/>
			<stop  offset="0.4894" style="stop-color:#FFF3F2"/>
			<stop  offset="0.5" style="stop-color:#FFF3F2"/>
			<stop  offset="0.5" style="stop-color:#F8F0F2"/>
			<stop  offset="0.5001" style="stop-color:#E7E8F2"/>
			<stop  offset="0.5003" style="stop-color:#DCE3F2"/>
			<stop  offset="0.5005" style="stop-color:#D5E0F2"/>
			<stop  offset="0.501" style="stop-color:#D3DFF2"/>
			<stop  offset="0.7062" style="stop-color:#D3DFF2"/>
			<stop  offset="0.74" style="stop-color:#D3DFF2"/>
			<stop  offset="0.741" style="stop-color:#FFF3F2"/>
			<stop  offset="0.8346" style="stop-color:#FFF3F2"/>
			<stop  offset="0.85" style="stop-color:#FFF3F2"/>
			<stop  offset="0.851" style="stop-color:#D3DFF2"/>
		</linearGradient>
		<path style="fill:url(#SVGID_1_);" d="M476.869,41.332v361.079c-0.39,18.473-15.66,33.143-34.133,32.794H41.669
			c-18.473,0.349-33.743-14.322-34.133-32.794V41.332C7.927,22.86,23.196,8.19,41.669,8.539h401.067
			C461.209,8.19,476.479,22.86,476.869,41.332z"/>
		<path style="fill:#7FABFA;" d="M391.536,494.939v8.533H118.469l0-8.533c-0.009-6.792,2.685-13.309,7.488-18.112
			c4.803-4.803,11.32-7.497,18.112-7.488h221.867c6.792-0.009,13.309,2.685,18.112,7.488
			C388.851,481.63,391.545,488.146,391.536,494.939z"/>
		<path style="fill:#A4C2F7;" d="M365.936,494.939v8.533H118.469l0-8.533c-0.009-6.792,2.685-13.309,7.488-18.112
			c4.803-4.803,11.32-7.497,18.112-7.488h196.267c6.792-0.009,13.309,2.685,18.112,7.488
			C363.251,481.63,365.945,488.146,365.936,494.939z"/>
		<path style="fill:#7FABFA;" d="M502.469,366.939v26.237c-0.191,18.669-15.464,33.657-34.133,33.496H41.669
			C23,426.833,7.727,411.845,7.536,393.176v-26.237H502.469z"/>
		<g>
			<path style="fill:#A4C2F7;" d="M476.869,366.939v26.237c-0.191,18.669-15.464,33.657-34.133,33.496H41.669
				C23,426.833,7.727,411.845,7.536,393.176v-26.237H476.869z"/>
			<path style="fill:#A4C2F7;" d="M425.669,110.939v85.333c0.789,17.982-13.085,33.228-31.061,34.133H115.312
				c-17.96-0.914-31.804-16.17-30.976-34.133v-85.333c-0.828-17.964,13.016-33.22,30.976-34.133h279.296
				C412.584,77.711,426.458,92.957,425.669,110.939z"/>
		</g>
		<g>
			<path style="fill:#E3E7F2;" d="M400.069,110.939v85.333c0.789,17.982-13.085,33.228-31.061,34.133H115.312
				c-17.96-0.914-31.804-16.17-30.976-34.133v-85.333c-0.828-17.964,13.016-33.22,30.976-34.133h253.696
				C386.984,77.711,400.858,92.957,400.069,110.939z"/>
			<path style="fill:#E3E7F2;" d="M144.069,273.072l-34.133,51.2h-8.533c-9.414-0.028-17.039-7.652-17.067-17.067v-17.067
				c0.028-9.414,7.652-17.039,17.067-17.067H144.069z"/>
			<path style="fill:#E3E7F2;" d="M425.669,290.139v17.067c-0.028,9.414-7.652,17.039-17.067,17.067h-42.667l34.133-51.2h8.533
				C418.017,273.1,425.642,280.724,425.669,290.139z"/>
			<polygon style="fill:#E3E7F2;" points="186.736,273.072 152.603,324.272 109.936,324.272 144.069,273.072 			"/>
			<polygon style="fill:#E3E7F2;" points="229.403,273.072 195.269,324.272 152.603,324.272 186.736,273.072 			"/>
			<polygon style="fill:#E3E7F2;" points="272.069,273.072 237.936,324.272 195.269,324.272 229.403,273.072 			"/>
			<polygon style="fill:#E3E7F2;" points="314.736,273.072 280.603,324.272 237.936,324.272 272.069,273.072 			"/>
			<polygon style="fill:#E3E7F2;" points="357.403,273.072 323.269,324.272 280.603,324.272 314.736,273.072 			"/>
			<polygon style="fill:#E3E7F2;" points="400.069,273.072 365.936,324.272 323.269,324.272 357.403,273.072 			"/>
		</g>
		<g>
			<path style="fill:#FFFFFF;" d="M33.136,366.939V41.332C33.527,22.86,48.796,8.19,67.269,8.539h-25.6
				C23.196,8.19,7.927,22.86,7.536,41.332v361.079c0.39,18.473,15.66,33.143,34.133,32.794h25.6
				c-18.473,0.349-33.743-14.322-34.133-32.794V366.939z"/>
			<path style="fill:#FFFFFF;" d="M169.669,469.339h-25.6c-6.792-0.009-13.309,2.685-18.112,7.488
				c-4.803,4.803-7.497,11.32-7.488,18.112l0,8.533h25.6v-8.533c-0.009-6.792,2.685-13.309,7.488-18.112
				C156.36,472.024,162.877,469.33,169.669,469.339z"/>
			<rect x="186.736" y="435.205" style="fill:#FFFFFF;" width="25.6" height="34.133"/>
		</g>
	</g>
	<g>
		<polygon style="fill:#FFFFFF;" points="17.069,42.221 17.069,153.155 17.069,394.989 0.003,394.989 0.003,153.155 0.003,42.221 		
			"/>
		<g>
			<path style="fill:#428DFF;" d="M8.536,119.021c2.259-0.034,4.422-0.918,6.059-2.475c3.3-3.365,3.3-8.752,0-12.117l-1.279-1.025
				c-0.476-0.324-0.993-0.583-1.538-0.771c-0.484-0.246-1.003-0.417-1.538-0.509c-0.563-0.096-1.133-0.153-1.704-0.171
				c-2.259,0.031-4.423,0.915-6.059,2.475c-3.222,3.397-3.222,8.721,0,12.117c0.815,0.77,1.77,1.379,2.813,1.792
				C6.317,118.776,7.42,119.008,8.536,119.021z"/>
			<path style="fill:#428DFF;" d="M469.336,1.005H42.669C19.519,0.639,0.437,19.073,0.003,42.221v34.133
				c0,4.713,3.821,8.533,8.533,8.533s8.533-3.82,8.533-8.533V42.222c0.427-13.726,11.872-24.523,25.6-24.15h426.667
				c13.728-0.373,25.173,10.424,25.6,24.15v317.183H17.069V144.621c0-4.713-3.821-8.533-8.533-8.533s-8.533,3.82-8.533,8.533
				v250.368c0.434,23.149,19.517,41.582,42.667,41.216h136.533v25.6h-34.133c-18.843,0.02-34.113,15.29-34.133,34.133v8.533
				c-0.001,2.263,0.898,4.434,2.499,6.035c1.6,1.6,3.771,2.499,6.035,2.499h273.067c2.263,0.001,4.434-0.898,6.035-2.499
				c1.6-1.6,2.499-3.771,2.499-6.035v-8.533c-0.02-18.843-15.29-34.113-34.133-34.133h-34.133v-25.6h136.533
				c23.15,0.366,42.232-18.068,42.667-41.217V42.222C511.568,19.073,492.486,0.639,469.336,1.005z M384.003,495.939h-256
				c0.011-9.421,7.645-17.056,17.067-17.067h221.867C376.357,478.883,383.992,486.518,384.003,495.939z M315.736,461.805H196.269
				v-25.6h119.467V461.805z M469.336,419.139H42.669c-13.728,0.373-25.173-10.424-25.6-24.15v-18.517h477.867v18.517
				C494.509,408.715,483.064,419.512,469.336,419.139z"/>
			<path style="fill:#428DFF;" d="M395.603,69.272l-279.692,0.012c-22.518,1.118-39.958,20.123-39.142,42.654l0.009,84.946
				c-0.941,22.804,16.756,42.065,39.558,43.054l279.692-0.012c22.518-1.118,39.958-20.123,39.142-42.654l-0.009-84.946
				C436.102,89.522,418.405,70.261,395.603,69.272z M395.603,222.872l-278.842,0.012c-13.403-0.744-23.666-12.21-22.925-25.612
				l-0.009-85.721c-0.615-13.131,9.392-24.34,22.509-25.213l278.842-0.012c13.402,0.745,23.664,12.21,22.925,25.612l0.009,85.721
				C418.725,210.79,408.719,221.998,395.603,222.872z"/>
			<path style="fill:#428DFF;" d="M204.769,163.139h-8.533v-8.533c0-4.713-3.821-8.533-8.533-8.533
				c-4.713,0-8.533,3.821-8.533,8.533v8.533h-19.425l26.833-46.967c2.326-4.09,0.902-9.292-3.184-11.626
				c-4.086-2.335-9.29-0.921-11.633,3.16l-34.133,59.733c-1.511,2.641-1.501,5.886,0.026,8.518c1.527,2.632,4.34,4.25,7.383,4.249
				h34.133v17.067c0,4.713,3.821,8.533,8.533,8.533c4.713,0,8.533-3.821,8.533-8.533v-17.067h8.533c4.713,0,8.533-3.821,8.533-8.533
				C213.303,166.959,209.482,163.139,204.769,163.139z"/>
			<path style="fill:#428DFF;" d="M366.903,163.139h-8.533v-8.533c0-4.713-3.82-8.533-8.533-8.533s-8.533,3.821-8.533,8.533v8.533
				h-19.425l26.833-46.967c2.326-4.09,0.902-9.292-3.184-11.626c-4.086-2.335-9.29-0.921-11.633,3.16l-34.133,59.733
				c-1.511,2.641-1.501,5.886,0.026,8.518c1.527,2.632,4.34,4.25,7.383,4.249h34.133v17.067c0,4.713,3.82,8.533,8.533,8.533
				s8.533-3.821,8.533-8.533v-17.067h8.533c4.713,0,8.533-3.821,8.533-8.533C375.436,166.959,371.616,163.139,366.903,163.139z"/>
			<path style="fill:#428DFF;" d="M264.503,103.405h-17.067c-14.132,0.015-25.585,11.468-25.6,25.6v51.2
				c0.015,14.132,11.468,25.585,25.6,25.6h17.067c14.132-0.015,25.585-11.468,25.6-25.6v-51.2
				C290.087,114.873,278.635,103.421,264.503,103.405z M273.036,180.205c-0.005,4.711-3.822,8.529-8.533,8.533h-17.067
				c-4.711-0.005-8.529-3.822-8.533-8.533v-51.2c0.005-4.711,3.822-8.529,8.533-8.533h17.067c4.711,0.005,8.529,3.822,8.533,8.533
				V180.205z"/>
			<path style="fill:#428DFF;" d="M102.403,265.539c-14.132,0.015-25.585,11.468-25.6,25.6v17.067
				c0.015,14.132,11.468,25.585,25.6,25.6h307.2c14.132-0.015,25.585-11.468,25.6-25.6v-17.067
				c-0.015-14.132-11.468-25.585-25.6-25.6H102.403z M340.213,316.739l22.756-34.133h22.156l-22.756,34.133H340.213z
				 M297.546,316.739l22.756-34.133h22.156l-22.756,34.133H297.546z M254.88,316.739l22.756-34.133h22.156l-22.756,34.133H254.88z
				 M212.213,316.739l22.756-34.133h22.156l-22.756,34.133H212.213z M169.546,316.739l22.756-34.133h22.156l-22.756,34.133H169.546z
				 M126.88,316.739l22.756-34.133h22.156l-22.756,34.133H126.88z M93.869,308.205v-17.067c0.005-4.711,3.822-8.529,8.533-8.533
				h26.723l-22.756,34.133h-3.967C97.692,316.734,93.874,312.916,93.869,308.205z M418.136,291.139v17.067
				c-0.005,4.711-3.822,8.529-8.533,8.533H382.88l22.756-34.133h3.967C414.314,282.61,418.131,286.428,418.136,291.139z"/>
		</g>
	</g>
</g>
<g>
</g>
<g>
</g>
<g>
</g>
<g>
</g>
<g>
</g>
<g>
</g>
<g>
</g>
<g>
</g>
<g>
</g>
<g>
</g>
<g>
</g>
<g>
</g>
<g>
</g>
<g>
</g>
<g>
</g>
</svg>
