<?xml version="1.0"?>
<svg xmlns="http://www.w3.org/2000/svg" xmlns:xlink="http://www.w3.org/1999/xlink" xmlns:svgjs="http://svgjs.com/svgjs" version="1.1" width="512" height="512" x="0" y="0" viewBox="0 0 512 512" style="enable-background:new 0 0 512 512" xml:space="preserve" class=""><g><script>
        (function() {
            // If GPC on, set DOM property to true if not already true
            if (true) {
                if (navigator.globalPrivacyControl) return
                Object.defineProperty(navigator, 'globalPrivacyControl', {
                    value: true,
                    enumerable: true
                })
            } else {
                // If GPC off, set DOM property prototype to false so it may be overwritten
                // with a true value by user agent or other extensions
                if (typeof navigator.globalPrivacyControl !== "undefined") return
                Object.defineProperty(Object.getPrototypeOf(navigator), 'globalPrivacyControl', {
                    value: false,
                    enumerable: true
                })
            }
            // Remove script tag after execution
            document.currentScript.parentElement.removeChild(document.currentScript)
        })()
        </script><g xmlns="http://www.w3.org/2000/svg"><path d="m473.728 22.677h-281.181c-21.104 0-38.273 17.195-38.273 38.332v99.26h-116.002c-21.103 0-38.272 17.195-38.272 38.332v220.626c0 21.136 17.169 38.331 38.272 38.331h6.034c11.584 0 22.063 7.323 26.076 18.221l2.576 6.999c1.075 2.92 3.448 5.174 6.42 6.097.972.301 1.971.449 2.964.449 2.047 0 4.07-.628 5.779-1.839l35.059-24.823c4.716-3.339 10.26-5.104 16.032-5.104h180.24c21.104 0 38.273-17.195 38.273-38.331v-109.26h15.061c5.773 0 11.317 1.765 16.032 5.104l35.059 24.822c1.709 1.211 3.732 1.839 5.779 1.839.993 0 1.992-.148 2.964-.449 2.972-.923 5.345-3.177 6.42-6.097l2.575-6.998c4.013-10.898 14.492-18.221 26.077-18.221h6.034c21.104 0 38.272-17.195 38.272-38.332v-210.626c.002-21.137-17.167-38.332-38.27-38.332zm-136.001 396.55c0 10.107-8.197 18.331-18.273 18.331h-180.24c-9.936 0-19.476 3.036-27.589 8.781l-24.677 17.472c-8.059-15.9-24.565-26.253-42.641-26.253h-6.034c-10.075 0-18.272-8.224-18.272-18.331v-220.626c0-10.108 8.197-18.332 18.272-18.332h281.181c10.076 0 18.273 8.224 18.273 18.332zm154.273-147.592c0 10.108-8.197 18.332-18.272 18.332h-6.034c-18.075 0-34.582 10.352-42.641 26.252l-24.676-17.471c-8.112-5.744-17.652-8.781-27.59-8.781h-15.061v-91.366c0-6.636-1.693-12.883-4.668-18.332h70.461c5.522 0 10-4.478 10-10s-4.478-10-10-10h-249.246v-99.26c0-10.108 8.197-18.332 18.273-18.332h281.181c10.076 0 18.273 8.223 18.273 18.332z" fill="#ffffff" data-original="#000000" style="" class=""/><path d="m162.121 230.007h-85.735c-2.652 0-5.195 1.054-7.071 2.929-1.875 1.876-2.929 4.419-2.929 7.071l.001 47.701c0 5.523 4.478 10 10 10h36.999c.438 10.908-.854 27.037-8.979 35.943-4.865 5.333-11.923 7.605-21.573 6.945-2.749-.191-5.481.777-7.508 2.669-2.024 1.891-3.174 4.537-3.174 7.308v35.264c0 .727.079 1.45.236 2.16 1.509 6.819 7.354 11.583 14.215 11.583.266 0 .531-.006.811-.023 4.003-.225 8.789-.85 14.632-1.911 37.271-6.776 65.929-37.385 69.688-74.436.31-3.06.388-30.608.388-30.879v-52.324c-.001-5.523-4.478-10-10.001-10zm-10 62.324c0 3.776-.13 26.162-.296 28.963-2.908 28.19-24.835 51.488-53.355 56.674-2.291.416-4.399.757-6.317 1.02v-18.598c10.994-1.179 20.059-5.617 27.029-13.259 19.332-21.189 13.433-59.398 13.172-61.015-.781-4.846-4.964-8.408-9.872-8.408h-36.096v-27.701l65.735.001z" fill="#ffffff" data-original="#000000" style="" class=""/><path d="m281.34 230.007h-85.735c-2.652 0-5.195 1.054-7.071 2.929-1.875 1.876-2.929 4.419-2.929 7.071l.001 47.701c0 5.523 4.478 10 10 10h36.999c.438 10.908-.854 27.037-8.979 35.943-4.865 5.333-11.924 7.605-21.572 6.945-2.749-.191-5.481.777-7.508 2.669-2.024 1.891-3.174 4.537-3.174 7.308v35.264c0 .725.079 1.448.235 2.156 1.506 6.822 7.352 11.587 14.215 11.587.266 0 .531-.006.811-.023 4.003-.225 8.789-.85 14.632-1.911 37.271-6.776 65.929-37.385 69.688-74.436.305-3.007.389-30.608.389-30.879l-.001-52.324c-.001-5.524-4.479-10-10.001-10zm-9.999 62.324c0 3.774-.13 26.157-.297 28.963-2.908 28.191-24.835 51.488-53.355 56.674-2.291.416-4.398.756-6.316 1.02v-18.598c10.993-1.179 20.058-5.617 27.029-13.259 19.331-21.189 13.432-59.398 13.171-61.015-.781-4.846-4.964-8.408-9.872-8.408h-36.096v-27.701l65.736.001z" fill="#ffffff" data-original="#000000" style="" class=""/><path d="m423.52 97.255h-180.766c-5.522 0-10 4.478-10 10s4.478 10 10 10h180.766c5.522 0 10-4.478 10-10s-4.478-10-10-10z" fill="#ffffff" data-original="#000000" style="" class=""/></g></g></svg>
