<?xml version="1.0" encoding="utf-8"?>
<!-- Generator: Adobe Illustrator 19.0.0, SVG Export Plug-In . SVG Version: 6.00 Build 0)  -->
<svg xmlns="http://www.w3.org/2000/svg" xmlns:xlink="http://www.w3.org/1999/xlink" version="1.1" id="Layer_1" x="0px" y="0px" viewBox="0 2 98 98" style="enable-background:new 0 2 98 98;" xml:space="preserve" width="512" height="512">
<style type="text/css">
	.st0{fill:url(#SVGID_1_);}
</style>
<linearGradient id="SVGID_1_" gradientUnits="userSpaceOnUse" x1="49" y1="94.45" x2="49" y2="11.6498" gradientTransform="matrix(1 0 0 -1 0 104)">
	<stop offset="0" style="stop-color:#00EFD1"/>
	<stop offset="1" style="stop-color:#00ACEA"/>
</linearGradient>
<path class="st0" d="M89.6,87.2L72,69.6c5.4-6.4,8.7-14.6,8.7-23.6C80.7,26,64.3,9.6,44.1,9.6S7.5,26,7.5,46s16.4,36.5,36.6,36.5  c9,0,17.2-3.3,23.6-8.6l17.7,17.6c0.6,0.6,1.4,0.9,2.1,0.9c0.8,0,1.5-0.3,2.1-0.9C90.8,90.2,90.8,88.3,89.6,87.2z M13.5,46  c0-16.8,13.7-30.5,30.6-30.5S74.7,29.2,74.7,46c0,8.4-3.4,16-8.9,21.5l-0.1,0.1l-0.1,0.1c-5.5,5.4-13.1,8.8-21.5,8.8  C27.2,76.5,13.5,62.9,13.5,46z"/>
</svg>
