<svg height="512pt" viewBox="0 -77 512 512" width="512pt" xmlns="http://www.w3.org/2000/svg"><path d="m392.53125 349.867188h93.867188c9.425781 0 17.070312-7.640626 17.070312-17.066407v-307.199219c0-9.425781-7.644531-17.070312-17.070312-17.070312h-460.796876c-9.425781 0-17.070312 7.644531-17.070312 17.070312v307.199219c0 9.425781 7.644531 17.066407 17.070312 17.066407zm0 0" fill="#c52828"/><path d="m366.078125 349.867188h87.367187c9.09375-.339844 16.199219-7.972657 15.886719-17.066407v-307.199219c.3125-9.097656-6.792969-16.730468-15.886719-17.070312h-429.023437c-9.09375.339844-16.199219 7.972656-15.890625 17.070312v307.199219c-.308594 9.09375 6.796875 16.726563 15.890625 17.066407zm0 0" fill="#f44335"/><path d="m503.46875 238.933594v93.867187c-.03125 9.414063-7.65625 17.039063-17.070312 17.066407h-460.796876c-9.414062-.027344-17.039062-7.652344-17.070312-17.066407v-93.867187zm0 0" fill="#2e7d32"/><path d="m469.332031 238.933594v93.867187c.289063 9.085938-6.804687 16.707031-15.886719 17.066407h-429.023437c-9.082031-.359376-16.175781-7.980469-15.890625-17.066407v-93.867187zm0 0" fill="#4caf50"/><path d="m8.53125 119.46875h494.933594v119.464844h-494.933594zm0 0" fill="#cfd8dc"/><path d="m8.53125 119.46875h460.800781v119.464844h-460.800781zm0 0" fill="#f5f5f5"/><path d="m486.398438 0h-460.796876c-14.140624 0-25.601562 11.460938-25.601562 25.601562v307.199219c0 14.136719 11.460938 25.597657 25.601562 25.597657h460.796876c14.140624 0 25.601562-11.460938 25.601562-25.597657v-307.199219c0-14.140624-11.460938-25.601562-25.601562-25.601562zm-460.796876 17.066406h460.796876c4.714843 0 8.535156 3.820313 8.535156 8.535156v85.332032h-477.867188v-85.332032c0-4.714843 3.820313-8.535156 8.535156-8.535156zm469.332032 213.332032h-477.867188v-102.398438h477.867188zm-8.535156 110.933593h-460.796876c-4.714843 0-8.535156-3.820312-8.535156-8.53125v-85.332031h477.867188v85.332031c0 4.710938-3.820313 8.53125-8.535156 8.53125zm0 0"/></svg>