<?xml version="1.0" encoding="iso-8859-1"?>
<!-- Generator: Adobe Illustrator 19.0.0, SVG Export Plug-In . SVG Version: 6.00 Build 0)  -->
<svg version="1.1" id="Capa_1" xmlns="http://www.w3.org/2000/svg" xmlns:xlink="http://www.w3.org/1999/xlink" x="0px" y="0px"
	 viewBox="0 0 511.999 511.999" style="enable-background:new 0 0 511.999 511.999;" xml:space="preserve">
<g>
	<g>
		<path d="M470.638,3.852H41.363C18.556,3.852,0,22.407,0,45.215v340.916c0,22.808,18.556,41.363,41.363,41.363h2.816v45.186
			c0,19.556,15.911,35.467,35.467,35.467h355.187c19.556,0,35.467-15.91,35.467-35.467v-45.186h0.337
			c22.808,0,41.362-18.556,41.362-41.363V45.215C512,22.407,493.445,3.852,470.638,3.852z M15.833,45.215
			c0-14.077,11.452-25.53,25.53-25.53h429.275c14.077,0,25.529,11.452,25.529,25.529V84.28H15.833V45.215z M496.168,386.131
			c-0.001,14.078-11.453,25.53-25.53,25.53h-0.337v-50.656c0-19.556-15.911-35.467-35.467-35.467h-65.868V194.122
			c0-4.372-3.544-7.917-7.917-7.917s-7.917,3.544-7.917,7.917v131.416H137.274c-4.373,0-7.917,3.544-7.917,7.917
			s3.544,7.917,7.917,7.917h297.56c10.827,0,19.634,8.807,19.634,19.634v111.676c0,10.827-8.807,19.634-19.634,19.634H79.646
			c-10.827,0-19.634-8.807-19.634-19.634V361.005c0-10.827,8.807-19.634,19.634-19.634h14.878c4.373,0,7.917-3.544,7.917-7.917
			s-3.544-7.917-7.917-7.917H79.646c-19.556,0-35.467,15.911-35.467,35.467v50.656h-2.816c-14.078,0-25.53-11.452-25.53-25.53
			V100.114h337.3v59.967c0,4.372,3.544,7.917,7.917,7.917s7.917-3.544,7.917-7.917v-59.967h127.201V386.131z"/>
	</g>
</g>
<g>
	<g>
		<path d="M321.702,44.632H174.438c-4.373,0-7.917,3.544-7.917,7.917s3.545,7.917,7.917,7.917h147.264
			c4.373,0,7.917-3.544,7.917-7.917S326.075,44.632,321.702,44.632z"/>
	</g>
</g>
<g>
	<g>
		<circle cx="52.1" cy="52.55" r="7.5"/>
	</g>
</g>
<g>
	<g>
		<circle cx="92.88" cy="52.55" r="7.5"/>
	</g>
</g>
<g>
	<g>
		<circle cx="131.39" cy="52.55" r="7.5"/>
	</g>
</g>
<g>
	<g>
		<circle cx="461.04" cy="52.55" r="7.5"/>
	</g>
</g>
<g>
	<g>
		<path d="M158.458,442.455c-0.896-1.431-2.13-2.146-3.703-2.146h-28.761v-18.244h16.097c1.645,0,2.898-0.644,3.756-1.932
			c0.859-1.287,1.287-2.753,1.287-4.401c0-1.787-0.447-3.326-1.341-4.614c-0.896-1.289-2.13-1.932-3.703-1.932h-16.097V391.05
			h28.761c1.573,0,2.807-0.715,3.703-2.146c0.894-1.431,1.341-3.183,1.341-5.259c0-1.932-0.43-3.612-1.287-5.044
			c-0.859-1.43-2.111-2.146-3.756-2.146H116.55c-2.003,0-3.719,0.447-5.15,1.341c-1.432,0.896-2.146,2.165-2.146,3.81v68.146
			c0,1.646,0.714,2.916,2.146,3.809c1.431,0.897,3.147,1.342,5.151,1.342h38.205c1.645,0,2.898-0.714,3.756-2.146
			c0.858-1.431,1.287-3.113,1.287-5.045C159.799,445.638,159.352,443.886,158.458,442.455z"/>
	</g>
</g>
<g>
	<g>
		<path d="M220.967,444.922l-13.092-23.717c8.656-3.362,12.985-10.625,12.985-21.785c0-15.31-8.8-22.965-26.4-22.965h-22.214
			c-1.502,0-2.737,0.501-3.703,1.502c-0.966,1.003-1.448,2.183-1.448,3.542v68.253c0.001,1.646,0.822,2.916,2.469,3.808
			c1.645,0.897,3.612,1.342,5.902,1.342c2.289,0,4.256-0.445,5.902-1.342c1.645-0.893,2.469-2.163,2.469-3.809v-25.864h7.083
			l14.702,28.547c1.073,2.076,2.86,3.111,5.365,3.111c2.504,0,4.883-0.928,7.136-2.789c2.254-1.86,3.381-3.826,3.381-5.902
			C221.504,446.068,221.325,445.423,220.967,444.922z M201.652,408.703c-1.647,1.538-4.043,2.307-7.191,2.307h-10.624v-19.96h10.624
			c3.148,0,5.544,0.769,7.191,2.307c1.645,1.539,2.468,4.096,2.468,7.673C204.12,404.608,203.297,407.165,201.652,408.703z"/>
	</g>
</g>
<g>
	<g>
		<path d="M283.639,444.922l-13.092-23.717c8.656-3.362,12.985-10.625,12.985-21.785c0-15.31-8.8-22.965-26.4-22.965h-22.214
			c-1.502,0-2.737,0.501-3.703,1.502c-0.966,1.003-1.448,2.183-1.448,3.542v68.253c0.001,1.646,0.823,2.916,2.469,3.808
			c1.645,0.897,3.612,1.342,5.902,1.342c2.289,0,4.256-0.445,5.902-1.342c1.645-0.893,2.469-2.163,2.469-3.809v-25.864h7.083
			l14.702,28.547c1.073,2.076,2.861,3.111,5.365,3.111c2.504,0,4.883-0.928,7.136-2.789c2.254-1.86,3.381-3.826,3.381-5.902
			C284.176,446.068,283.997,445.423,283.639,444.922z M264.323,408.703c-1.647,1.538-4.043,2.307-7.191,2.307h-10.623v-19.96h0
			h10.623c3.148,0,5.544,0.769,7.191,2.307c1.645,1.539,2.468,4.096,2.468,7.673C266.791,404.608,265.968,407.165,264.323,408.703z"
			/>
	</g>
</g>
<g>
	<g>
		<path d="M337.083,382.572c-4.794-4.078-11.198-6.117-19.209-6.117c-7.941,0-14.311,2.039-19.103,6.117
			c-4.793,4.078-7.19,10.482-7.19,19.209v28.439c0,8.73,2.397,15.131,7.19,19.209c4.792,4.078,11.162,6.117,19.103,6.117
			c8.011,0,14.415-2.039,19.209-6.117c4.792-4.078,7.19-10.479,7.19-19.209v-28.439C344.273,393.054,341.875,386.65,337.083,382.572
			z M327.532,430.22c0,7.155-3.219,10.732-9.658,10.732c-6.369,0-9.551-3.577-9.551-10.732v-28.439
			c0-7.153,3.182-10.731,9.551-10.731c6.438,0,9.658,3.578,9.658,10.731V430.22z"/>
	</g>
</g>
<g>
	<g>
		<path d="M408.875,444.922l-13.092-23.717c8.656-3.362,12.985-10.625,12.985-21.785c0-15.31-8.8-22.965-26.4-22.965h-22.214
			c-1.502,0-2.737,0.501-3.703,1.502c-0.966,1.003-1.448,2.183-1.448,3.542v68.253c0.001,1.646,0.822,2.916,2.469,3.808
			c1.645,0.897,3.612,1.342,5.902,1.342c2.289,0,4.256-0.445,5.902-1.342c1.645-0.893,2.469-2.163,2.469-3.809v-25.864h7.083
			l14.702,28.547c1.073,2.076,2.86,3.111,5.365,3.111c2.504,0,4.883-0.928,7.136-2.789c2.254-1.86,3.381-3.826,3.381-5.902
			C409.412,446.068,409.233,445.423,408.875,444.922z M389.56,408.703c-1.647,1.538-4.043,2.307-7.191,2.307h-10.624v-19.96h10.624
			c3.148,0,5.544,0.769,7.191,2.307c1.645,1.539,2.468,4.096,2.468,7.673C392.028,404.608,391.205,407.165,389.56,408.703z"/>
	</g>
</g>
<g>
	<g>
		<circle cx="56.17" cy="133.96" r="7.917"/>
	</g>
</g>
<g>
	<g>
		<path d="M191.235,126.039H87.572c-4.373,0-7.917,3.544-7.917,7.917c0.001,4.373,3.545,7.917,7.917,7.917h103.663
			c4.373,0,7.917-3.544,7.917-7.917C199.152,129.584,195.608,126.039,191.235,126.039z"/>
	</g>
</g>
<g>
	<g>
		<path d="M471.619,118.123h-77.938c-4.373,0-7.917,3.544-7.917,7.917c0,4.372,3.544,7.917,7.917,7.917h77.938
			c4.373,0,7.917-3.544,7.917-7.917C479.536,121.668,475.992,118.123,471.619,118.123z"/>
	</g>
</g>
<g>
	<g>
		<path d="M471.619,152.165h-77.938c-4.373,0-7.917,3.544-7.917,7.917c0,4.372,3.544,7.917,7.917,7.917h77.938
			c4.373,0,7.917-3.544,7.917-7.917C479.536,155.709,475.992,152.165,471.619,152.165z"/>
	</g>
</g>
<g>
	<g>
		<path d="M471.619,186.206h-77.938c-4.373,0-7.917,3.544-7.917,7.917c0,4.372,3.544,7.917,7.917,7.917h77.938
			c4.373,0,7.917-3.544,7.917-7.917C479.536,189.751,475.992,186.206,471.619,186.206z"/>
	</g>
</g>
<g>
	<g>
		<path d="M471.619,220.247h-77.938c-4.373,0-7.917,3.544-7.917,7.917c0,4.372,3.544,7.917,7.917,7.917h77.938
			c4.373,0,7.917-3.544,7.917-7.917C479.536,223.792,475.992,220.247,471.619,220.247z"/>
	</g>
</g>
<g>
	<g>
		<path d="M471.619,254.289h-77.938c-4.373,0-7.917,3.544-7.917,7.917s3.544,7.917,7.917,7.917h77.938
			c4.373,0,7.917-3.544,7.917-7.917C479.536,257.833,475.992,254.289,471.619,254.289z"/>
	</g>
</g>
<g>
	<g>
		<path d="M471.619,288.33h-77.938c-4.373,0-7.917,3.544-7.917,7.917s3.544,7.917,7.917,7.917h77.938
			c4.373,0,7.917-3.544,7.917-7.917S475.992,288.33,471.619,288.33z"/>
	</g>
</g>
<g>
	<g>
		<circle cx="56.17" cy="167.21" r="7.917"/>
	</g>
</g>
<g>
	<g>
		<path d="M141.974,159.289H87.572c-4.373,0-7.917,3.544-7.917,7.917c0.001,4.372,3.545,7.917,7.917,7.917h54.402
			c4.373,0,7.917-3.544,7.917-7.917C149.891,162.834,146.347,159.289,141.974,159.289z"/>
	</g>
</g>
<g>
	<g>
		<circle cx="56.17" cy="265.37" r="7.917"/>
	</g>
</g>
<g>
	<g>
		<path d="M169.472,257.456h-81.9c-4.373,0-7.917,3.544-7.917,7.917s3.544,7.917,7.917,7.917h81.9c4.373,0,7.917-3.544,7.917-7.917
			S173.845,257.456,169.472,257.456z"/>
	</g>
</g>
<g>
	<g>
		<circle cx="56.17" cy="297.83" r="7.917"/>
	</g>
</g>
<g>
	<g>
		<path d="M169.472,289.914h-81.9c-4.373,0-7.917,3.544-7.917,7.917s3.544,7.917,7.917,7.917h81.9c4.373,0,7.917-3.544,7.917-7.917
			S173.845,289.914,169.472,289.914z"/>
	</g>
</g>
<g>
	<g>
		<path d="M224.639,257.456h-28.92c-4.373,0-7.917,3.544-7.917,7.917s3.544,7.917,7.917,7.917h28.92
			c4.373,0,7.917-3.544,7.917-7.917S229.011,257.456,224.639,257.456z"/>
	</g>
</g>
<g>
	<g>
		<path d="M228.841,159.289h-54.402c-4.373,0.001-7.917,3.545-7.917,7.917s3.544,7.917,7.917,7.917h54.402
			c4.373,0,7.917-3.544,7.917-7.917C236.758,162.834,233.214,159.289,228.841,159.289z"/>
	</g>
</g>
<g>
	<g>
		<circle cx="56.17" cy="200.46" r="7.917"/>
	</g>
</g>
<g>
	<g>
		<path d="M195.718,192.539h-75.116c-4.373,0-7.917,3.544-7.917,7.917c0,4.372,3.544,7.917,7.917,7.917h75.116
			c4.373,0,7.917-3.544,7.917-7.917C203.635,196.084,200.091,192.539,195.718,192.539z"/>
	</g>
</g>
<g>
	<g>
		<circle cx="56.17" cy="232.12" r="7.917"/>
	</g>
</g>
<g>
	<g>
		<path d="M257.606,224.206H120.602c-4.373,0-7.917,3.544-7.917,7.917c0,4.372,3.544,7.917,7.917,7.917h137.004
			c4.373,0,7.917-3.544,7.917-7.917S261.979,224.206,257.606,224.206z"/>
	</g>
</g>
<g>
	<g>
		<path d="M303.956,192.539H228.84c-4.373,0-7.917,3.544-7.917,7.917c0,4.372,3.544,7.917,7.917,7.917h75.116
			c4.373,0,7.917-3.544,7.917-7.917C311.873,196.084,308.329,192.539,303.956,192.539z"/>
	</g>
</g>
<g>
</g>
<g>
</g>
<g>
</g>
<g>
</g>
<g>
</g>
<g>
</g>
<g>
</g>
<g>
</g>
<g>
</g>
<g>
</g>
<g>
</g>
<g>
</g>
<g>
</g>
<g>
</g>
<g>
</g>
</svg>
